<svg width="26" height="18" viewBox="0 0 26 18" fill="none" xmlns="http://www.w3.org/2000/svg">
<mask id="path-1-inside-1_197_59" fill="white">
<path d="M5.5102 11.0184C6.21591 11.0183 6.89999 11.2619 7.44668 11.7081C7.99336 12.1543 8.36906 12.7757 8.5102 13.467H17.1429V1.22427H3.67347C3.02396 1.22427 2.40105 1.48224 1.94178 1.94143C1.48251 2.40062 1.22449 3.02342 1.22449 3.67281V13.467H2.5102C2.65135 12.7757 3.02705 12.1543 3.57373 11.7081C4.12042 11.2619 4.8045 11.0183 5.5102 11.0184ZM5.5102 17.1398C4.8045 17.1399 4.12042 16.8963 3.57373 16.4501C3.02705 16.0039 2.65135 15.3826 2.5102 14.6912H0V3.67281C0 2.69872 0.387025 1.76453 1.07593 1.07574C1.76484 0.386956 2.6992 0 3.67347 0H17.1429C17.4676 0 17.7791 0.128986 18.0087 0.358581C18.2383 0.588176 18.3673 0.899574 18.3673 1.22427V3.67281H22.0408L25.7143 8.56989V14.6912H23.2041C23.0636 15.3831 22.6881 16.0052 22.1414 16.452C21.5946 16.8988 20.9102 17.1429 20.2041 17.1429C19.4979 17.1429 18.8135 16.8988 18.2668 16.452C17.72 16.0052 17.3446 15.3831 17.2041 14.6912H8.5102C8.36906 15.3826 7.99336 16.0039 7.44668 16.4501C6.89999 16.8963 6.21591 17.1399 5.5102 17.1398ZM5.5102 12.2427C5.02307 12.2427 4.55589 12.4362 4.21144 12.7806C3.86698 13.125 3.67347 13.5921 3.67347 14.0791C3.67347 14.5662 3.86698 15.0333 4.21144 15.3776C4.55589 15.722 5.02307 15.9155 5.5102 15.9155C5.99734 15.9155 6.46452 15.722 6.80897 15.3776C7.15343 15.0333 7.34694 14.5662 7.34694 14.0791C7.34694 13.5921 7.15343 13.125 6.80897 12.7806C6.46452 12.4362 5.99734 12.2427 5.5102 12.2427ZM20.2041 11.0184C20.9098 11.0183 21.5939 11.2619 22.1406 11.7081C22.6872 12.1543 23.0629 12.7757 23.2041 13.467H24.4898V8.96166L24.1959 8.56989H18.3673V11.6306C18.8816 11.251 19.5184 11.0184 20.2041 11.0184ZM20.2041 12.2427C19.7169 12.2427 19.2498 12.4362 18.9053 12.7806C18.5609 13.125 18.3673 13.5921 18.3673 14.0791C18.3673 14.5662 18.5609 15.0333 18.9053 15.3776C19.2498 15.722 19.7169 15.9155 20.2041 15.9155C20.6912 15.9155 21.1584 15.722 21.5028 15.3776C21.8473 15.0333 22.0408 14.5662 22.0408 14.0791C22.0408 13.5921 21.8473 13.125 21.5028 12.7806C21.1584 12.4362 20.6912 12.2427 20.2041 12.2427ZM18.3673 4.89708V7.34562H23.2653L21.4286 4.89708H18.3673Z"/>
</mask>
<path d="M5.5102 11.0184C6.21591 11.0183 6.89999 11.2619 7.44668 11.7081C7.99336 12.1543 8.36906 12.7757 8.5102 13.467H17.1429V1.22427H3.67347C3.02396 1.22427 2.40105 1.48224 1.94178 1.94143C1.48251 2.40062 1.22449 3.02342 1.22449 3.67281V13.467H2.5102C2.65135 12.7757 3.02705 12.1543 3.57373 11.7081C4.12042 11.2619 4.8045 11.0183 5.5102 11.0184ZM5.5102 17.1398C4.8045 17.1399 4.12042 16.8963 3.57373 16.4501C3.02705 16.0039 2.65135 15.3826 2.5102 14.6912H0V3.67281C0 2.69872 0.387025 1.76453 1.07593 1.07574C1.76484 0.386956 2.6992 0 3.67347 0H17.1429C17.4676 0 17.7791 0.128986 18.0087 0.358581C18.2383 0.588176 18.3673 0.899574 18.3673 1.22427V3.67281H22.0408L25.7143 8.56989V14.6912H23.2041C23.0636 15.3831 22.6881 16.0052 22.1414 16.452C21.5946 16.8988 20.9102 17.1429 20.2041 17.1429C19.4979 17.1429 18.8135 16.8988 18.2668 16.452C17.72 16.0052 17.3446 15.3831 17.2041 14.6912H8.5102C8.36906 15.3826 7.99336 16.0039 7.44668 16.4501C6.89999 16.8963 6.21591 17.1399 5.5102 17.1398ZM5.5102 12.2427C5.02307 12.2427 4.55589 12.4362 4.21144 12.7806C3.86698 13.125 3.67347 13.5921 3.67347 14.0791C3.67347 14.5662 3.86698 15.0333 4.21144 15.3776C4.55589 15.722 5.02307 15.9155 5.5102 15.9155C5.99734 15.9155 6.46452 15.722 6.80897 15.3776C7.15343 15.0333 7.34694 14.5662 7.34694 14.0791C7.34694 13.5921 7.15343 13.125 6.80897 12.7806C6.46452 12.4362 5.99734 12.2427 5.5102 12.2427ZM20.2041 11.0184C20.9098 11.0183 21.5939 11.2619 22.1406 11.7081C22.6872 12.1543 23.0629 12.7757 23.2041 13.467H24.4898V8.96166L24.1959 8.56989H18.3673V11.6306C18.8816 11.251 19.5184 11.0184 20.2041 11.0184ZM20.2041 12.2427C19.7169 12.2427 19.2498 12.4362 18.9053 12.7806C18.5609 13.125 18.3673 13.5921 18.3673 14.0791C18.3673 14.5662 18.5609 15.0333 18.9053 15.3776C19.2498 15.722 19.7169 15.9155 20.2041 15.9155C20.6912 15.9155 21.1584 15.722 21.5028 15.3776C21.8473 15.0333 22.0408 14.5662 22.0408 14.0791C22.0408 13.5921 21.8473 13.125 21.5028 12.7806C21.1584 12.4362 20.6912 12.2427 20.2041 12.2427ZM18.3673 4.89708V7.34562H23.2653L21.4286 4.89708H18.3673Z" fill="#A66A45"/>
<path d="M5.5102 11.0184L5.50984 12.8041H5.51057L5.5102 11.0184ZM8.5102 13.467L6.76058 13.8242L7.05223 15.2527H8.5102V13.467ZM17.1429 13.467V15.2527H18.9286V13.467H17.1429ZM17.1429 1.22427H18.9286V-0.561444H17.1429V1.22427ZM3.67347 1.22427L3.67347 -0.561444L3.67347 1.22427ZM1.22449 3.67281H-0.561225H1.22449ZM1.22449 13.467H-0.561225V15.2527H1.22449V13.467ZM2.5102 13.467V15.2527H3.96818L4.25983 13.8242L2.5102 13.467ZM5.5102 17.1398L5.51057 15.3541H5.50984L5.5102 17.1398ZM2.5102 14.6912L4.25983 14.334L3.96818 12.9055H2.5102V14.6912ZM0 14.6912H-1.78571V16.477H0V14.6912ZM0 3.67281H-1.78571H0ZM3.67347 0L3.67347 -1.78571L3.67347 0ZM18.3673 3.67281H16.5816V5.45853H18.3673V3.67281ZM22.0408 3.67281L23.4693 2.60126L22.9336 1.8871H22.0408V3.67281ZM25.7143 8.56989H27.5V7.97457L27.1428 7.49834L25.7143 8.56989ZM25.7143 14.6912V16.477H27.5V14.6912H25.7143ZM23.2041 14.6912V12.9055H21.7446L21.4541 14.3358L23.2041 14.6912ZM17.2041 14.6912L18.9541 14.3358L18.6636 12.9055H17.2041V14.6912ZM8.5102 14.6912V12.9055H7.05223L6.76058 14.334L8.5102 14.6912ZM5.5102 12.2427V10.457V12.2427ZM3.67347 14.0791H1.88776H3.67347ZM20.2041 11.0184V12.8041H20.2044L20.2041 11.0184ZM23.2041 13.467L21.4545 13.8242L21.7461 15.2527H23.2041V13.467ZM24.4898 13.467V15.2527H26.2755V13.467H24.4898ZM24.4898 8.96166H26.2755V8.36634L25.9183 7.89011L24.4898 8.96166ZM24.1959 8.56989L25.6244 7.49834L25.0887 6.78418H24.1959V8.56989ZM18.3673 8.56989V6.78418H16.5816V8.56989H18.3673ZM18.3673 11.6306H16.5816V15.1677L19.4277 13.0674L18.3673 11.6306ZM20.2041 12.2427V10.457V12.2427ZM18.3673 14.0791H16.5816H18.3673ZM18.3673 4.89708V3.11137H16.5816V4.89708H18.3673ZM18.3673 7.34562H16.5816V9.13134H18.3673V7.34562ZM23.2653 7.34562V9.13134H26.8371L24.6938 6.27407L23.2653 7.34562ZM21.4286 4.89708L22.8571 3.82553L22.3213 3.11137H21.4286V4.89708ZM5.5102 11.0184L5.51057 12.8041C5.8047 12.8041 6.08977 12.9056 6.31755 13.0915L7.44668 11.7081L8.5758 10.3247C7.71021 9.61823 6.62712 9.23249 5.50984 9.23272L5.5102 11.0184ZM7.44668 11.7081L6.31755 13.0915C6.54532 13.2774 6.7018 13.5363 6.76058 13.8242L8.5102 13.467L10.2598 13.1098C10.0363 12.015 9.44139 11.0312 8.5758 10.3247L7.44668 11.7081ZM8.5102 13.467V15.2527H17.1429V13.467V11.6813H8.5102V13.467ZM17.1429 13.467H18.9286V1.22427H17.1429H15.3571V13.467H17.1429ZM17.1429 1.22427V-0.561444H3.67347V1.22427V3.00998H17.1429V1.22427ZM3.67347 1.22427L3.67347 -0.561444C2.55046 -0.561444 1.47339 -0.115414 0.679201 0.678628L1.94178 1.94143L3.20436 3.20424C3.32872 3.0799 3.49746 3.00998 3.67347 3.00998V1.22427ZM1.94178 1.94143L0.679201 0.678628C-0.114993 1.47268 -0.561225 2.54971 -0.561225 3.67281H1.22449H3.0102C3.0102 3.49712 3.08001 3.32856 3.20436 3.20424L1.94178 1.94143ZM1.22449 3.67281H-0.561225V13.467H1.22449H3.0102V3.67281H1.22449ZM1.22449 13.467V15.2527H2.5102V13.467V11.6813H1.22449V13.467ZM2.5102 13.467L4.25983 13.8242C4.31861 13.5363 4.47508 13.2774 4.70286 13.0915L3.57373 11.7081L2.44461 10.3247C1.57902 11.0312 0.984084 12.015 0.760581 13.1098L2.5102 13.467ZM3.57373 11.7081L4.70286 13.0915C4.93063 12.9056 5.21571 12.8041 5.50984 12.8041L5.5102 11.0184L5.51057 9.23272C4.39329 9.23249 3.3102 9.61823 2.44461 10.3247L3.57373 11.7081ZM5.5102 17.1398L5.50984 15.3541C5.21571 15.3541 4.93063 15.2526 4.70286 15.0667L3.57373 16.4501L2.44461 17.8335C3.3102 18.54 4.39329 18.9257 5.51057 18.9255L5.5102 17.1398ZM3.57373 16.4501L4.70286 15.0667C4.47508 14.8808 4.31861 14.6219 4.25983 14.334L2.5102 14.6912L0.760581 15.0485C0.984084 16.1432 1.57902 17.127 2.44461 17.8335L3.57373 16.4501ZM2.5102 14.6912V12.9055H0V14.6912V16.477H2.5102V14.6912ZM0 14.6912H1.78571V3.67281H0H-1.78571V14.6912H0ZM0 3.67281H1.78571C1.78571 3.17243 1.98452 2.69247 2.33851 2.33855L1.07593 1.07574L-0.186643 -0.187062C-1.21047 0.836586 -1.78571 2.22502 -1.78571 3.67281H0ZM1.07593 1.07574L2.33851 2.33855C2.69251 1.98461 3.1727 1.78571 3.67347 1.78571V0L3.67347 -1.78571C2.22571 -1.78571 0.837177 -1.2107 -0.186643 -0.187062L1.07593 1.07574ZM3.67347 0V1.78571H17.1429V0V-1.78571H3.67347V0ZM17.1429 0V1.78571C16.9941 1.78571 16.8514 1.72664 16.7461 1.62138L18.0087 0.358581L19.2713 -0.904223C18.7067 -1.46867 17.9411 -1.78571 17.1429 -1.78571V0ZM18.0087 0.358581L16.7461 1.62138C16.6408 1.51612 16.5816 1.37328 16.5816 1.22427H18.3673H20.1531C20.1531 0.425868 19.8358 -0.339767 19.2713 -0.904223L18.0087 0.358581ZM18.3673 1.22427H16.5816V3.67281H18.3673H20.1531V1.22427H18.3673ZM18.3673 3.67281V5.45853H22.0408V3.67281V1.8871H18.3673V3.67281ZM22.0408 3.67281L20.6123 4.74436L24.2858 9.64145L25.7143 8.56989L27.1428 7.49834L23.4693 2.60126L22.0408 3.67281ZM25.7143 8.56989H23.9286V14.6912H25.7143H27.5V8.56989H25.7143ZM25.7143 14.6912V12.9055H23.2041V14.6912V16.477H25.7143V14.6912ZM23.2041 14.6912L21.4541 14.3358C21.3956 14.624 21.2392 14.8831 21.0114 15.0692L22.1414 16.452L23.2714 17.8347C24.137 17.1273 24.7316 16.1423 24.9541 15.0467L23.2041 14.6912ZM22.1414 16.452L21.0114 15.0692C20.7836 15.2554 20.4984 15.3571 20.2041 15.3571V17.1429V18.9286C21.322 18.9286 22.4057 18.5421 23.2714 17.8347L22.1414 16.452ZM20.2041 17.1429V15.3571C19.9098 15.3571 19.6246 15.2554 19.3968 15.0692L18.2668 16.452L17.1368 17.8347C18.0025 18.5421 19.0861 18.9286 20.2041 18.9286V17.1429ZM18.2668 16.452L19.3968 15.0692C19.169 14.8831 19.0126 14.624 18.9541 14.3358L17.2041 14.6912L15.4541 15.0467C15.6766 16.1423 16.2711 17.1273 17.1368 17.8347L18.2668 16.452ZM17.2041 14.6912V12.9055H8.5102V14.6912V16.477H17.2041V14.6912ZM8.5102 14.6912L6.76058 14.334C6.7018 14.6219 6.54532 14.8808 6.31755 15.0667L7.44668 16.4501L8.5758 17.8335C9.44139 17.127 10.0363 16.1432 10.2598 15.0485L8.5102 14.6912ZM7.44668 16.4501L6.31755 15.0667C6.08977 15.2526 5.8047 15.3541 5.51057 15.3541L5.5102 17.1398L5.50984 18.9255C6.62712 18.9257 7.71021 18.54 8.5758 17.8335L7.44668 16.4501ZM5.5102 12.2427V10.457C4.54957 10.457 3.62822 10.8385 2.94886 11.5178L4.21144 12.7806L5.47401 14.0434C5.48356 14.0338 5.49657 14.0284 5.5102 14.0284V12.2427ZM4.21144 12.7806L2.94886 11.5178C2.26948 12.197 1.88776 13.1184 1.88776 14.0791H3.67347H5.45918C5.45918 14.0658 5.46448 14.0529 5.47401 14.0434L4.21144 12.7806ZM3.67347 14.0791H1.88776C1.88776 15.0399 2.26948 15.9612 2.94886 16.6404L4.21144 15.3776L5.47401 14.1148C5.46448 14.1053 5.45918 14.0925 5.45918 14.0791H3.67347ZM4.21144 15.3776L2.94886 16.6404C3.62822 17.3197 4.54957 17.7012 5.5102 17.7012V15.9155V14.1298C5.49657 14.1298 5.48356 14.1244 5.47401 14.1148L4.21144 15.3776ZM5.5102 15.9155V17.7012C6.47084 17.7012 7.39219 17.3197 8.07155 16.6404L6.80897 15.3776L5.54639 14.1148C5.53685 14.1244 5.52384 14.1298 5.5102 14.1298V15.9155ZM6.80897 15.3776L8.07155 16.6404C8.75093 15.9612 9.13265 15.0399 9.13265 14.0791H7.34694H5.56122C5.56122 14.0925 5.55593 14.1053 5.54639 14.1148L6.80897 15.3776ZM7.34694 14.0791H9.13265C9.13265 13.1184 8.75093 12.197 8.07155 11.5178L6.80897 12.7806L5.54639 14.0434C5.55593 14.0529 5.56122 14.0658 5.56122 14.0791H7.34694ZM6.80897 12.7806L8.07155 11.5178C7.39218 10.8385 6.47083 10.457 5.5102 10.457V12.2427V14.0284C5.52384 14.0284 5.53685 14.0338 5.54639 14.0434L6.80897 12.7806ZM20.2041 11.0184L20.2044 12.8041C20.4986 12.8041 20.7837 12.9056 21.0114 13.0915L22.1406 11.7081L23.2697 10.3247C22.4041 9.61823 21.321 9.23249 20.2037 9.23272L20.2041 11.0184ZM22.1406 11.7081L21.0114 13.0915C21.2392 13.2775 21.3957 13.5363 21.4545 13.8242L23.2041 13.467L24.9537 13.1098C24.7302 12.015 24.1353 11.0312 23.2697 10.3247L22.1406 11.7081ZM23.2041 13.467V15.2527H24.4898V13.467V11.6813H23.2041V13.467ZM24.4898 13.467H26.2755V8.96166H24.4898H22.7041V13.467H24.4898ZM24.4898 8.96166L25.9183 7.89011L25.6244 7.49834L24.1959 8.56989L22.7674 9.64145L23.0613 10.0332L24.4898 8.96166ZM24.1959 8.56989V6.78418H18.3673V8.56989V10.3556H24.1959V8.56989ZM18.3673 8.56989H16.5816V11.6306H18.3673H20.1531V8.56989H18.3673ZM18.3673 11.6306L19.4277 13.0674C19.6579 12.8975 19.9277 12.8041 20.2041 12.8041V11.0184V9.23272C19.1091 9.23272 18.1054 9.6046 17.307 10.1937L18.3673 11.6306ZM20.2041 12.2427V10.457C19.2435 10.457 18.3221 10.8385 17.6427 11.5178L18.9053 12.7806L20.1679 14.0434C20.1774 14.0338 20.1904 14.0284 20.2041 14.0284V12.2427ZM18.9053 12.7806L17.6427 11.5178C16.9634 12.197 16.5816 13.1184 16.5816 14.0791H18.3673H20.1531C20.1531 14.0658 20.1584 14.0529 20.1679 14.0434L18.9053 12.7806ZM18.3673 14.0791H16.5816C16.5816 15.0399 16.9634 15.9612 17.6427 16.6404L18.9053 15.3776L20.1679 14.1148C20.1584 14.1053 20.1531 14.0924 20.1531 14.0791H18.3673ZM18.9053 15.3776L17.6427 16.6404C18.3221 17.3197 19.2434 17.7012 20.2041 17.7012V15.9155V14.1298C20.1905 14.1298 20.1774 14.1244 20.1679 14.1148L18.9053 15.3776ZM20.2041 15.9155V17.7012C21.1647 17.7012 22.0861 17.3197 22.7654 16.6404L21.5028 15.3776L20.2403 14.1148C20.2307 14.1244 20.2177 14.1298 20.2041 14.1298V15.9155ZM21.5028 15.3776L22.7654 16.6404C23.4448 15.9612 23.8265 15.0399 23.8265 14.0791H22.0408H20.2551C20.2551 14.0924 20.2498 14.1053 20.2403 14.1148L21.5028 15.3776ZM22.0408 14.0791H23.8265C23.8265 13.1184 23.4448 12.197 22.7654 11.5178L21.5028 12.7806L20.2403 14.0434C20.2498 14.0529 20.2551 14.0658 20.2551 14.0791H22.0408ZM21.5028 12.7806L22.7654 11.5178C22.0861 10.8385 21.1647 10.457 20.2041 10.457V12.2427V14.0284C20.2177 14.0284 20.2307 14.0338 20.2403 14.0434L21.5028 12.7806ZM18.3673 4.89708H16.5816V7.34562H18.3673H20.1531V4.89708H18.3673ZM18.3673 7.34562V9.13134H23.2653V7.34562V5.55991H18.3673V7.34562ZM23.2653 7.34562L24.6938 6.27407L22.8571 3.82553L21.4286 4.89708L20.0001 5.96863L21.8368 8.41718L23.2653 7.34562ZM21.4286 4.89708V3.11137H18.3673V4.89708V6.6828H21.4286V4.89708Z" fill="#2C2C2C" mask="url(#path-1-inside-1_197_59)"/>
</svg>
