<svg width="16" height="20" viewBox="0 0 16 20" fill="none" xmlns="http://www.w3.org/2000/svg">
<path fill-rule="evenodd" clip-rule="evenodd" d="M7.72497 0H7.79697C8.70097 0 9.42998 -2.6077e-08 10.019 0.053C10.625 0.108 11.155 0.225 11.636 0.503C12.2061 0.831911 12.6796 1.30509 13.009 1.875C13.287 2.356 13.403 2.886 13.458 3.492C13.511 4.081 13.511 4.81 13.511 5.714V9.121C14.005 9.225 14.452 9.43 14.813 9.841C15.258 10.351 15.403 10.987 15.464 11.687L15.468 11.734C15.503 12.144 15.537 12.531 15.515 12.855C15.49 13.226 15.389 13.605 15.088 13.933C14.778 14.273 14.386 14.398 14.012 14.452C13.8593 14.4733 13.6926 14.4867 13.512 14.492V18.75C13.512 18.9489 13.433 19.1397 13.2923 19.2803C13.1517 19.421 12.9609 19.5 12.762 19.5C12.5631 19.5 12.3723 19.421 12.2316 19.2803C12.091 19.1397 12.012 18.9489 12.012 18.75V14.5H3.51197V18.75C3.51197 18.9489 3.43296 19.1397 3.2923 19.2803C3.15165 19.421 2.96089 19.5 2.76197 19.5C2.56306 19.5 2.3723 19.421 2.23164 19.2803C2.09099 19.1397 2.01197 18.9489 2.01197 18.75V14.492C1.84408 14.4871 1.67653 14.4738 1.50997 14.452C1.13597 14.398 0.744974 14.272 0.433974 13.933C0.132974 13.605 0.0319744 13.226 0.0069744 12.855C-0.0150256 12.531 0.0189748 12.143 0.0539748 11.735L0.0579745 11.687C0.117975 10.987 0.263975 10.351 0.708975 9.842C1.06997 9.43 1.51697 9.225 2.01097 9.121V5.714C2.01097 4.81 2.01097 4.081 2.06397 3.492C2.11897 2.886 2.23597 2.356 2.51397 1.875C2.84289 1.30486 3.31607 0.831326 3.88597 0.502C4.36697 0.225 4.89697 0.108 5.50297 0.053C6.09197 -2.6077e-08 6.82097 0 7.72497 0ZM4.20497 9H3.51097V5.75C3.51097 4.802 3.51097 4.14 3.55797 3.628C3.60397 3.125 3.68797 2.84 3.81297 2.625C4.01024 2.28287 4.29408 1.99868 4.63597 1.801C4.85097 1.677 5.13597 1.593 5.63897 1.547C6.15097 1.501 6.81297 1.5 7.76097 1.5C8.70897 1.5 9.37097 1.5 9.88297 1.547C10.386 1.593 10.671 1.677 10.886 1.801C11.228 1.999 11.512 2.283 11.71 2.625C11.834 2.84 11.918 3.125 11.964 3.628C12.01 4.14 12.011 4.802 12.011 5.75V9H4.20497ZM4.26097 10.5C3.41197 10.5 2.86097 10.502 2.45497 10.565C2.08097 10.622 1.93797 10.715 1.83797 10.83C1.71197 10.974 1.60397 11.214 1.55297 11.815C1.51197 12.289 1.49097 12.56 1.50297 12.755C1.50508 12.8038 1.51314 12.8522 1.52697 12.899C1.53097 12.909 1.53297 12.912 1.53897 12.919L1.53997 12.92L1.54297 12.922L1.55297 12.927C1.57297 12.937 1.62297 12.953 1.72197 12.967C1.93997 12.998 2.24597 13 2.76197 13H12.762C13.276 13 13.582 12.998 13.8 12.967C13.8614 12.96 13.9216 12.9448 13.979 12.922L13.982 12.921L13.983 12.919L13.995 12.899C14.0085 12.8521 14.0162 12.8038 14.018 12.755C14.031 12.56 14.01 12.289 13.969 11.815C13.918 11.215 13.81 10.974 13.684 10.83C13.584 10.716 13.441 10.622 13.067 10.565C12.661 10.502 12.11 10.5 11.261 10.5H4.26097Z" fill="black" fill-opacity="0.34"/>
<path d="M4.26074 10C3.63703 10 3.14521 10.0005 2.74707 10.0303L2.37988 10.0703C1.93736 10.1378 1.66637 10.2665 1.46191 10.501C1.22962 10.7665 1.10859 11.1376 1.05469 11.7715C1.01505 12.2297 0.98909 12.5454 1.00391 12.7861L1.00488 12.7852C1.0093 12.8717 1.02331 12.9579 1.04785 13.041L1.05371 13.0635L1.0625 13.085C1.06782 13.0983 1.08208 13.1315 1.10547 13.1699C1.12906 13.2087 1.15261 13.2365 1.15918 13.2441L1.17188 13.2588L1.22168 13.3086L1.29199 13.3555L1.3291 13.374C1.42349 13.4212 1.53918 13.446 1.65137 13.4619C1.91285 13.4991 2.26153 13.5 2.76172 13.5H12.7617C13.2508 13.5 13.5956 13.4981 13.8555 13.4629L13.8564 13.4639C13.8586 13.4636 13.8611 13.4622 13.8633 13.4619C13.8655 13.4616 13.8679 13.4622 13.8701 13.4619L13.8691 13.4609C13.9604 13.4495 14.0495 13.4274 14.1357 13.3955L14.1367 13.3965L14.1396 13.3955L14.3369 13.3301L14.4238 13.1562L14.457 13.1006L14.4756 13.0371C14.5003 12.9513 14.5143 12.8627 14.5176 12.7734L14.5166 12.7725C14.5306 12.5321 14.5055 12.2192 14.4668 11.7715C14.4129 11.1391 14.2928 10.7665 14.0605 10.501L14.0596 10.5C13.8563 10.2684 13.5866 10.1381 13.1416 10.0703C12.6885 10.0003 12.0915 10 11.2607 10H4.26074ZM7.76074 1C6.82197 1 6.13327 1.00036 5.59375 1.04883C5.12401 1.09179 4.78415 1.16939 4.50293 1.30566L4.38574 1.36816C3.96833 1.60951 3.62193 1.95647 3.38086 2.37402C3.20373 2.67877 3.10863 3.04591 3.05957 3.58203C3.00997 4.12237 3.01074 4.8121 3.01074 5.75V9.5H12.5107V5.75C12.5107 4.81111 12.5104 4.12257 12.4619 3.58301V3.58203L12.416 3.20996C12.3606 2.86633 12.275 2.60297 12.1436 2.375L12.1426 2.37402C11.9008 1.95663 11.5541 1.60986 11.1367 1.36816H11.1357C10.8317 1.19284 10.4653 1.09791 9.92871 1.04883C9.38837 0.999227 8.69864 1 7.76074 1ZM2.51172 14.0068L2.02637 13.9922C1.87611 13.9878 1.72622 13.9754 1.57715 13.9561C1.26399 13.9103 1.00403 13.8141 0.802734 13.5947C0.653494 13.4321 0.572815 13.248 0.533203 13.0391L0.505859 12.8213C0.487029 12.544 0.51564 12.1984 0.551758 11.7773L0.552734 11.7764L0.556641 11.7285L0.555664 11.7275C0.612862 11.0624 0.745903 10.558 1.08398 10.1709L1.08496 10.1719C1.35622 9.86229 1.69512 9.69859 2.11426 9.61035L2.51074 9.52637V5.71387C2.51074 5.02953 2.51077 4.46284 2.53223 3.98535L2.56152 3.53711C2.60685 3.03778 2.69428 2.6319 2.86719 2.27539L2.94727 2.125C3.23215 1.63117 3.64124 1.21996 4.13477 0.93457L4.13574 0.935547C4.43024 0.765964 4.75617 0.662953 5.1416 0.600586L5.54785 0.550781C6.10934 0.500263 6.81245 0.5 7.72461 0.5H7.79688C8.70896 0.5 9.41215 0.500298 9.97363 0.550781C10.5444 0.602582 10.9934 0.708811 11.3857 0.935547V0.936523C11.8798 1.22156 12.2908 1.63112 12.5762 2.125C12.7461 2.4191 12.848 2.74511 12.9102 3.13086L12.96 3.53711C13.0105 4.09861 13.0107 4.80171 13.0107 5.71387V9.52637L13.4082 9.61035C13.8266 9.69847 14.1655 9.86106 14.4365 10.1689V10.1699C14.7329 10.5098 14.8715 10.9385 14.9404 11.4873L14.9658 11.7305L14.9697 11.7764C15.0059 12.1997 15.0354 12.5439 15.0166 12.8213H15.0156C14.9953 13.1224 14.9187 13.3778 14.7197 13.5947L14.7188 13.5957C14.5184 13.8154 14.257 13.9113 13.9404 13.957C13.8092 13.9753 13.6616 13.9873 13.4971 13.9922L13.0117 14.0068V18.75C13.0117 18.8163 12.9854 18.8799 12.9385 18.9268C12.8916 18.9736 12.828 19 12.7617 19C12.6955 18.9999 12.6318 18.9736 12.585 18.9268C12.5382 18.8799 12.5117 18.8162 12.5117 18.75V14H3.01172V18.75C3.01172 18.8163 2.98536 18.8799 2.93848 18.9268C2.8916 18.9736 2.82796 19 2.76172 19C2.69551 18.9999 2.63178 18.9736 2.58496 18.9268C2.53816 18.8799 2.51172 18.8162 2.51172 18.75V14.0068Z" stroke="black" stroke-opacity="0.72"/>
</svg>
