<svg width="12" height="12" viewBox="0 0 12 12" fill="none" xmlns="http://www.w3.org/2000/svg">
<path d="M7.86874 10.6333L11.2348 1.39811L11.2394 1.38498C11.3026 1.19879 11.3122 0.998577 11.267 0.807212C11.2218 0.615846 11.1237 0.441055 10.9839 0.302815C10.8441 0.164576 10.6682 0.0684669 10.4763 0.0254731C10.2844 -0.0175206 10.0843 -0.00566422 9.89888 0.0596872L9.88581 0.0644776L0.689702 3.53591C0.486275 3.60955 0.310626 3.74435 0.186869 3.92181C0.063111 4.09926 -0.00268892 4.31067 -0.00149896 4.52701L-0.0013941 4.54535C0.003705 4.76633 0.078549 4.98003 0.212435 5.15591C0.346321 5.33178 0.532392 5.46082 0.744039 5.52456L0.759261 5.52919L4.73974 6.6188L5.8748 10.5866L5.8796 10.6017C5.94507 10.8126 6.07548 10.9974 6.25222 11.1298C6.42896 11.2622 6.64299 11.3353 6.86378 11.3388C7.08457 11.3423 7.30082 11.276 7.48167 11.1493C7.66251 11.0226 7.79872 10.842 7.87084 10.6333L7.86874 10.6333ZM5.85081 5.93287C5.8211 5.82906 5.76516 5.73464 5.68837 5.65873C5.61158 5.58282 5.51654 5.52796 5.41239 5.49944L1.72369 4.48937L9.894 1.40525L6.90194 9.60978L5.85081 5.93287Z" fill="#915E3F"/>
</svg>
